<svg id="Group_748" data-name="Group 748" xmlns="http://www.w3.org/2000/svg" width="23.136" height="23.174" viewBox="0 0 23.136 23.174">
  <g id="Group_744" data-name="Group 744">
    <g id="Group_404" data-name="Group 404">
      <g id="Group_403" data-name="Group 403">
        <path id="Path_230" data-name="Path 230" d="M83.026,776.4a9.084,9.084,0,1,1,9.085-9.083,9.1,9.1,0,0,1-9.085,9.083Zm0-16.346a7.262,7.262,0,1,0,7.261,7.263,7.276,7.276,0,0,0-7.261-7.263Z" transform="translate(-73.647 -757.936)" fill="#E51313"/>
        <path id="Path_231" data-name="Path 231" d="M83.07,776.742a9.38,9.38,0,1,1,9.382-9.379A9.39,9.39,0,0,1,83.07,776.742Zm0-18.169a8.789,8.789,0,1,0,8.789,8.79A8.8,8.8,0,0,0,83.073,758.573Zm0,16.346a7.557,7.557,0,0,1,0-15.114h0a7.557,7.557,0,1,1,0,15.114Zm0-14.523a6.966,6.966,0,1,0,6.966,6.967,6.979,6.979,0,0,0-6.966-6.967Z" transform="translate(-73.693 -757.982)" fill="#E51313"/>
      </g>
    </g>
    <g id="Group_406" data-name="Group 406" transform="translate(14.417 14.468)">
      <g id="Group_405" data-name="Group 405">
        <path id="Path_232" data-name="Path 232" d="M93.195,778.588a1.07,1.07,0,0,1-.76-.316l-5.98-5.979a1.074,1.074,0,0,1,1.519-1.519l5.98,5.98a1.074,1.074,0,0,1-.759,1.833Z" transform="translate(-85.845 -770.178)" fill="#E51313"/>
        <path id="Path_233" data-name="Path 233" d="M93.239,778.927a1.361,1.361,0,0,1-.968-.4l-5.98-5.979a1.37,1.37,0,0,1,0-1.936,1.4,1.4,0,0,1,1.937,0l5.98,5.978a1.371,1.371,0,0,1-.969,2.339Zm-5.98-8.128a.769.769,0,0,0-.55.228.778.778,0,0,0,0,1.1l5.98,5.98a.794.794,0,0,0,1.1,0,.779.779,0,0,0,0-1.1l-5.98-5.979A.77.77,0,0,0,87.259,770.8Z" transform="translate(-85.89 -770.221)" fill="#E51313"/>
      </g>
    </g>
  </g>
</svg>
