<svg id="Group_125" data-name="Group 125" xmlns="http://www.w3.org/2000/svg" width="22.881" height="16.599" viewBox="0 0 22.881 16.599">
  <g id="Group_122" data-name="Group 122">
    <path id="Path_50" data-name="Path 50" d="M2185.21,837.635h-18.164a2.362,2.362,0,0,1-2.36-2.358V823.394a2.362,2.362,0,0,1,2.36-2.358h18.164a2.361,2.361,0,0,1,2.357,2.358v11.883a2.361,2.361,0,0,1-2.357,2.358Zm-18.164-14.6a.36.36,0,0,0-.36.358v11.883a.36.36,0,0,0,.36.358h18.164a.358.358,0,0,0,.357-.358V823.394a.358.358,0,0,0-.357-.358Z" transform="translate(-2164.686 -821.036)" fill="#E51313"/>
  </g>
  <g id="Group_123" data-name="Group 123" transform="translate(0.593 7.828)">
    <path id="Path_51" data-name="Path 51" d="M2185.21,837.135h-18.164a1.867,1.867,0,0,1-1.735-1.2.5.5,0,0,1,.135-.551l7.09-6.322a.5.5,0,0,1,.666.746l-6.785,6.049a.856.856,0,0,0,.629.278h18.164a.857.857,0,0,0,.627-.277l-6.864-6.12a.5.5,0,0,1,.667-.747l7.167,6.393a.5.5,0,0,1,.135.55,1.861,1.861,0,0,1-1.732,1.2Z" transform="translate(-2165.279 -828.864)" fill="#E51313"/>
  </g>
  <g id="Group_124" data-name="Group 124" transform="translate(0.593 0.5)">
    <path id="Path_52" data-name="Path 52" d="M2176.128,832.642a.5.5,0,0,1-.334-.127l-10.348-9.228a.5.5,0,0,1-.135-.55,1.868,1.868,0,0,1,1.735-1.2h18.164a1.862,1.862,0,0,1,1.732,1.2.5.5,0,0,1-.135.549l-10.347,9.228a.493.493,0,0,1-.332.127Zm-9.709-9.827,9.709,8.657,9.709-8.658a.858.858,0,0,0-.627-.278h-18.164a.849.849,0,0,0-.627.279Z" transform="translate(-2165.279 -821.536)" fill="#E51313"/>
  </g>
</svg>
