<svg id="Group_129" data-name="Group 129" xmlns="http://www.w3.org/2000/svg" width="20.503" height="24.25" viewBox="0 0 20.503 24.25">
  <g id="Group_127" data-name="Group 127">
    <path id="Path_54" data-name="Path 54" d="M2175.973,874.505a1,1,0,0,1-.648-.24c-.982-.838-9.6-8.343-9.6-13.759a10.252,10.252,0,0,1,20.5,0c0,5.416-8.619,12.921-9.6,13.759a.994.994,0,0,1-.649.24Zm0-22.25a8.261,8.261,0,0,0-8.251,8.251c0,3.511,5.459,9.152,8.251,11.668,2.793-2.516,8.252-8.157,8.252-11.668a8.26,8.26,0,0,0-8.252-8.251Z" transform="translate(-2165.722 -850.255)" fill="#E51313"/>
  </g>
  <g id="Group_128" data-name="Group 128" transform="translate(5.251 5.251)">
    <path id="Path_55" data-name="Path 55" d="M2175.973,865.506a5,5,0,1,1,5-5,5.008,5.008,0,0,1-5,5Zm0-8a3,3,0,1,0,3,3,3,3,0,0,0-3-3Z" transform="translate(-2170.973 -855.506)" fill="#E51313"/>
  </g>
</svg>
