<?xml version="1.0" encoding="utf-8"?>
<!-- Generator: Adobe Illustrator 19.0.0, SVG Export Plug-In . SVG Version: 6.00 Build 0)  -->
<svg version="1.1" id="Layer_1" xmlns="http://www.w3.org/2000/svg" xmlns:xlink="http://www.w3.org/1999/xlink" x="0px" y="0px"
	 viewBox="39.2 -5 144 60" style="enable-background:new 39.2 -5 144 60;" xml:space="preserve">
<path d="M146.2,23.3h5.3l4-6.4l4.2,6.4h5.7l-6.7-9.6l5.9-8.8h-5.3l-3.6,5.5l-3.5-5.5h-5.6l6,8.7L146.2,23.3z M118.8,23.3h-8.4V4.9
	h8.2c4.6,0,6.9,1.6,6.9,4.8c0,0.8-0.2,1.6-0.6,2.3c-0.4,0.7-1.1,1.2-1.8,1.5c0.9,0.4,1.7,1,2.2,1.7c0.5,0.8,0.7,1.7,0.7,2.6
	c0.1,1.6-0.6,3.1-1.9,4C122.5,22.9,120.6,23.4,118.8,23.3L118.8,23.3z M115.1,11.9h3.2c0.6,0,1.3-0.1,1.8-0.4
	c0.4-0.3,0.6-0.8,0.6-1.3c0-0.5-0.2-1-0.6-1.3c-0.6-0.3-1.3-0.4-2-0.4h-3L115.1,11.9L115.1,11.9z M118.3,19.6
	c0.8,0.1,1.6-0.1,2.3-0.5c0.5-0.4,0.8-1,0.7-1.6c0.1-0.6-0.2-1.2-0.7-1.5c-0.7-0.3-1.4-0.5-2.2-0.5h-3.4v4L118.3,19.6z M89.1-5H48.8
	v5.6h40.3L89.1-5z M136.7,26.7l6.8,18.4h-5.1l-1.1-3.5h-7l-1.1,3.5h-5l6.8-18.4L136.7,26.7z M135.9,37.6l-2.2-6.7l-2.2,6.7H135.9z
	 M145.6,19.3c-0.7,1.4-1.9,2.6-3.3,3.3c-1.6,0.8-3.3,1.2-5.1,1.1c-1.8,0-3.5-0.4-5.1-1.2c-1.4-0.8-2.5-1.9-3.2-3.3
	c-0.8-1.6-1.2-3.3-1.1-5.1c-0.1-1.8,0.4-3.6,1.2-5.2c0.7-1.4,1.9-2.6,3.3-3.3c1.6-0.8,3.3-1.2,5.1-1.1c1.8,0,3.5,0.4,5.1,1.2
	c1.4,0.8,2.5,1.9,3.2,3.3C147.1,12.2,147.1,16,145.6,19.3L145.6,19.3z M141.5,14.1c0.1-1.4-0.3-2.8-1.1-4c-1.7-1.8-4.4-1.8-6.2-0.2
	c-0.1,0.1-0.1,0.1-0.2,0.2c-1.4,2.5-1.4,5.6,0,8.1c1.6,1.8,4.4,1.8,6.2,0.2c0.1-0.1,0.1-0.1,0.2-0.2
	C141.2,16.9,141.6,15.5,141.5,14.1L141.5,14.1z M174,33.7l6.3-7h-5.7l-6.2,6.9v-6.9h-4.9v18.4h4.9v-5.7l2.2-2.3l4.8,8h5.5L174,33.7z
	 M157.8,37.8l4,7.3h-5.2l-3.2-6.3H150v6.3h-4.7V26.7h7.8c2-0.1,4,0.4,5.6,1.5c1.3,1.1,2,2.7,1.9,4.4
	C160.8,34.8,159.7,36.8,157.8,37.8z M155.9,32.7c0.1-0.6-0.2-1.3-0.7-1.7c-0.7-0.4-1.5-0.6-2.3-0.5H150V35h2.9
	c0.8,0.1,1.6-0.1,2.3-0.5C155.7,34,155.9,33.4,155.9,32.7L155.9,32.7z M125.4,32.9c0,4.2-2.5,6.2-7.6,6.2h-2.6v6h-4.8V26.7h7.4
	c2.5,0,4.4,0.5,5.7,1.5C124.9,29.4,125.6,31.2,125.4,32.9L125.4,32.9z M120.8,32.9c0.1-0.7-0.2-1.3-0.7-1.7
	c-0.7-0.4-1.5-0.6-2.3-0.5h-2.6v4.6h2.6c0.8,0.1,1.6-0.1,2.3-0.5C120.6,34.2,120.8,33.6,120.8,32.9L120.8,32.9z M48.8,55h40.3v-5.6
	H48.8L48.8,55z M39,45.1h5.6V4.9H39V45.1z M85.3,4.7L69,21.1L52.6,4.7l-3.9,3.9L65,25L48.7,41.4l3.9,3.9L69,28.9l16.4,16.4l3.9-3.9
	L72.9,25L89.3,8.6L85.3,4.7z M93.4,45.1h5.6V4.9h-5.6V45.1z"/>
</svg>
