<?xml version="1.0" standalone="no"?>
<!DOCTYPE svg PUBLIC "-//W3C//DTD SVG 20010904//EN"
 "http://www.w3.org/TR/2001/REC-SVG-20010904/DTD/svg10.dtd">
<svg version="1.0" xmlns="http://www.w3.org/2000/svg"
 width="250.000000pt" height="250.000000pt" viewBox="0 0 250.000000 250.000000"
 preserveAspectRatio="xMidYMid meet">
<metadata>
Created by potrace 1.11, written by Peter Selinger 2001-2013
</metadata>
<g transform="translate(0.000000,250.000000) scale(0.100000,-0.100000)"
fill="#000000" stroke="none">
<path d="M1100 2383 c0 -7 -13 -10 -35 -8 -19 2 -35 -2 -35 -7 0 -6 -8 -4 -17
3 -9 8 -14 9 -10 3 4 -7 -1 -14 -13 -17 -10 -3 -21 0 -23 7 -3 8 -8 7 -20 -2
-9 -8 -21 -11 -27 -7 -5 3 -10 2 -10 -4 0 -5 -8 -8 -17 -6 -10 1 -24 -2 -30
-8 -7 -5 -13 -7 -13 -3 0 3 -15 0 -34 -8 -26 -11 -37 -11 -46 -3 -10 9 -11 9
-5 -2 6 -11 3 -13 -13 -9 -14 4 -20 2 -16 -4 5 -7 -2 -9 -19 -6 -15 3 -24 1
-21 -3 5 -9 -5 -12 -38 -12 -10 0 -18 -4 -18 -9 0 -5 -4 -6 -10 -3 -5 3 -10 2
-10 -4 0 -6 -7 -8 -15 -5 -8 4 -15 2 -15 -3 0 -5 -7 -10 -15 -11 -8 -1 -22 -3
-30 -4 -8 -1 -15 -6 -15 -11 0 -5 -7 -7 -15 -3 -8 3 -15 1 -15 -5 0 -6 -5 -7
-10 -4 -6 3 -10 1 -10 -5 0 -6 -4 -8 -10 -5 -5 3 -10 2 -10 -4 0 -6 -7 -7 -17
-4 -12 5 -14 3 -8 -8 7 -11 5 -11 -10 1 -10 8 -16 11 -13 5 3 -5 -10 -18 -29
-28 -22 -11 -32 -13 -28 -5 4 7 0 5 -8 -5 -11 -14 -16 -15 -20 -5 -3 8 -6 6
-6 -5 -1 -10 -6 -15 -11 -12 -18 11 -25 -32 -23 -149 1 -86 -2 -114 -10 -109
-9 5 -9 3 -1 -8 15 -20 16 -241 0 -232 -8 5 -8 3 0 -8 15 -19 16 -79 1 -79 -8
0 -8 -3 -2 -8 16 -11 17 -42 3 -60 -8 -10 -9 -13 -1 -9 15 10 15 -52 -1 -72
-8 -11 -8 -13 1 -8 15 10 15 -52 -1 -72 -8 -11 -8 -13 1 -8 15 10 15 -52 -1
-72 -8 -11 -8 -13 1 -8 9 6 12 -5 11 -37 0 -31 -4 -43 -12 -39 -6 4 -2 -3 8
-15 19 -22 19 -22 0 -22 -12 0 -15 -3 -8 -8 7 -4 11 -36 10 -79 -1 -41 3 -69
8 -65 5 3 7 -2 3 -11 -4 -10 -2 -17 4 -17 7 0 9 -11 6 -25 -3 -19 1 -29 15
-36 11 -6 17 -13 14 -16 -3 -3 3 -18 14 -33 11 -16 20 -33 20 -39 0 -6 5 -11
11 -11 5 0 8 -4 5 -9 -3 -5 1 -11 9 -15 8 -3 15 -13 15 -21 0 -9 4 -14 9 -11
5 3 11 -4 14 -15 3 -12 10 -18 16 -15 6 4 8 -2 6 -14 -2 -11 0 -18 4 -16 11 7
63 -49 54 -57 -3 -4 4 -7 16 -7 14 0 25 -7 28 -20 3 -11 10 -17 16 -13 6 4 8
0 4 -10 -4 -11 -2 -14 8 -10 8 3 18 -2 21 -11 3 -9 10 -13 15 -10 5 3 9 -3 9
-12 0 -10 3 -15 6 -11 3 3 16 -5 29 -18 12 -14 25 -22 29 -18 4 4 9 -2 12 -14
4 -15 11 -20 22 -16 11 5 14 2 9 -10 -4 -12 -2 -14 10 -10 12 5 14 3 8 -7 -5
-8 -4 -11 3 -6 6 3 17 -1 25 -9 9 -8 20 -15 26 -15 6 0 11 -4 11 -10 0 -5 7
-10 15 -10 8 0 15 -4 15 -9 0 -5 14 -14 30 -21 17 -7 30 -16 30 -21 0 -5 7 -9
15 -9 8 0 15 -4 15 -10 0 -5 7 -10 15 -10 8 0 15 -4 15 -10 0 -5 7 -10 15 -10
9 0 18 -7 21 -15 4 -8 10 -13 14 -10 5 3 14 0 22 -7 7 -7 20 -14 28 -16 8 -2
18 -9 22 -15 4 -7 8 -8 8 -3 0 4 9 -2 21 -15 11 -13 17 -17 13 -9 -7 13 -5 13
8 2 9 -7 37 -23 63 -37 l48 -24 37 24 c21 13 41 21 44 18 3 -4 6 -1 6 6 0 7 5
9 10 6 6 -3 10 -1 10 4 0 9 54 38 78 41 4 1 11 8 15 16 4 8 13 14 18 14 6 0
24 9 40 21 16 11 34 17 39 14 6 -4 9 -1 8 7 -2 7 4 12 12 10 8 -2 12 -1 8 3
-8 9 14 35 25 28 4 -2 7 1 7 8 0 6 8 9 19 6 15 -3 18 -1 14 11 -4 9 -2 13 4 9
6 -4 13 0 17 8 3 8 11 15 18 15 8 0 22 9 31 21 10 11 24 18 31 16 8 -3 13 1
12 11 -1 11 5 16 17 14 10 -2 17 3 17 13 0 8 7 15 16 15 9 0 12 5 8 12 -5 8
-2 9 9 5 9 -3 19 -1 23 5 5 7 2 8 -7 4 -8 -4 -3 2 11 13 14 11 29 21 33 21 5
0 6 4 3 8 -2 4 4 14 16 21 15 9 18 10 13 0 -5 -8 -4 -10 3 -5 7 4 12 12 12 18
0 15 57 68 64 61 3 -4 6 -1 6 5 0 6 14 25 30 42 17 17 30 38 30 46 0 8 4 13 9
9 5 -3 12 4 16 15 3 11 11 20 16 20 5 0 9 7 9 16 0 8 4 12 10 9 6 -3 7 1 4 9
-4 10 -1 16 10 16 9 0 13 6 10 14 -3 7 2 20 10 29 8 8 12 17 9 21 -4 3 0 6 7
6 7 0 10 3 7 7 -4 3 0 17 9 31 9 13 11 21 5 18 -16 -10 -13 3 4 21 12 12 13
18 4 29 -9 11 -9 14 0 14 7 0 9 5 6 10 -3 6 0 10 7 10 9 0 9 3 -2 10 -8 5 -11
10 -6 10 5 0 3 6 -3 14 -7 8 -8 17 -3 20 5 3 8 18 7 33 -1 15 3 31 9 35 7 5 7
8 -2 8 -9 0 -11 7 -7 21 5 16 4 20 -6 15 -8 -4 -5 0 5 8 11 9 14 16 8 16 -8 0
-10 10 -7 30 3 19 1 30 -6 30 -8 0 -8 5 1 15 7 9 10 18 7 22 -4 3 -1 13 6 21
9 13 9 14 0 8 -8 -4 -13 -1 -13 8 0 9 6 16 13 16 9 0 9 2 0 8 -7 5 -10 19 -8
35 3 16 1 27 -6 27 -8 0 -8 5 1 15 7 9 10 18 7 22 -4 3 -1 13 6 21 10 13 9 14
-1 8 -11 -6 -12 -1 -9 23 3 20 1 31 -6 31 -8 0 -8 3 -2 8 15 11 18 42 5 57 -6
7 -7 16 -2 19 5 3 8 18 7 33 -1 15 3 31 9 35 7 5 7 8 -2 8 -9 0 -11 7 -7 21 6
16 4 20 -6 13 -12 -6 -12 -5 0 9 11 14 11 17 0 17 -10 0 -10 3 -3 8 6 4 10 15
8 25 -1 9 3 17 9 17 7 0 5 5 -3 10 -8 5 -11 10 -6 10 5 0 3 6 -3 14 -7 8 -8
17 -3 20 5 3 8 18 7 33 -1 15 3 31 9 35 7 5 7 8 -2 8 -9 0 -11 7 -7 21 6 16 4
20 -6 13 -12 -6 -12 -5 0 9 11 14 11 17 0 17 -9 0 -10 3 -4 8 6 4 10 14 10 22
0 8 4 18 10 22 6 5 6 8 -2 8 -6 0 -10 9 -8 20 2 11 0 20 -6 20 -5 0 -9 7 -9
16 0 8 -4 12 -10 9 -5 -3 -10 -2 -10 4 0 6 -7 8 -15 5 -8 -4 -15 -1 -15 6 0 6
-4 8 -10 5 -5 -3 -10 -1 -10 5 0 7 -7 10 -15 6 -8 -3 -15 -1 -15 5 0 6 -4 7
-10 4 -5 -3 -10 -1 -10 4 0 6 -8 11 -18 11 -10 0 -24 6 -31 13 -11 10 -12 9
-6 -2 5 -9 4 -12 -3 -7 -7 4 -12 15 -12 24 0 13 -2 14 -9 4 -7 -12 -14 -11
-38 2 -17 8 -33 12 -37 9 -3 -4 -6 -1 -6 6 0 8 -8 11 -20 8 -14 -4 -20 0 -20
11 0 14 -2 14 -9 3 -6 -10 -10 -10 -16 -1 -4 6 -13 9 -21 6 -8 -3 -14 -1 -14
5 0 6 -4 7 -10 4 -5 -3 -10 0 -10 7 0 9 -3 9 -10 -2 -7 -11 -10 -11 -10 -2 0
7 -4 11 -9 8 -5 -3 -12 1 -15 9 -4 12 -10 13 -24 6 -11 -6 -23 -6 -28 -1 -5 5
-20 10 -34 12 -14 2 -29 6 -35 9 -5 3 -28 7 -50 8 -22 1 -42 6 -43 12 -3 6 -9
5 -18 -2 -11 -9 -14 -9 -14 1 0 7 -6 10 -14 7 -7 -3 -19 0 -25 6 -8 8 -11 8
-11 -1 0 -10 -5 -10 -20 -2 -11 6 -20 7 -20 3 0 -4 -5 -2 -12 5 -7 7 -17 8
-30 1 -11 -6 -18 -6 -18 0 0 9 -7 9 -45 1 -5 -1 -12 -1 -15 0 -15 6 -79 6 -75
0 2 -4 -2 -7 -10 -7 -8 0 -15 4 -15 8 0 4 -11 6 -25 5 -14 0 -25 -5 -25 -11 0
-5 -5 -3 -10 5 -9 13 -10 13 -10 0 0 -13 -1 -13 -10 0 -6 9 -10 10 -10 3z"/>
</g>
</svg>
