<svg id="Layer_1" data-name="Layer 1" xmlns="http://www.w3.org/2000/svg" viewBox="0 0 256 256"><defs><style>.cls-1{fill:#ed1c24;stroke:#ed1c24;stroke-miterlimit:10;stroke-width:0.5px;}</style></defs><path id="Path_903" data-name="Path 903" class="cls-1" d="M63.57,41.91a5.77,5.77,0,0,0-3.19,10.43A52,52,0,0,1,75.2,72.52c4.94,12.59,5.74,29.62-15.13,51.94C37,149.2,36.36,172.35,42.66,188.13a61.25,61.25,0,0,0,18.66,24.74,5.77,5.77,0,0,0,7.05-9.12l-.2-.15A50.75,50.75,0,0,1,53.4,183.84c-4.91-12.35-5.78-29.13,15.09-51.48C91.62,107.6,92.23,84.28,86,68.31A63,63,0,0,0,67.34,43.14,5.76,5.76,0,0,0,63.57,41.91Zm63.71,0a5.77,5.77,0,0,0-3.19,10.43,52,52,0,0,1,14.82,20.18c4.94,12.59,5.75,29.62-15.12,51.94-23.11,24.74-23.71,47.89-17.42,63.67A61.32,61.32,0,0,0,125,212.87,5.77,5.77,0,0,0,132.4,204a4.57,4.57,0,0,0-.57-.41,50.75,50.75,0,0,1-14.77-19.76c-4.91-12.35-5.72-29.13,15.16-51.48,23.12-24.75,23.68-48.08,17.41-64A62.94,62.94,0,0,0,131,43.13a5.79,5.79,0,0,0-3.75-1.22Zm63.7,0a5.76,5.76,0,0,0-3.18,10.43,52,52,0,0,1,14.81,20.18c4.95,12.59,5.75,29.62-15.12,51.94-23.11,24.74-23.7,47.89-17.41,63.67a61.32,61.32,0,0,0,18.65,24.74A5.77,5.77,0,0,0,196.1,204c-.18-.15-.36-.28-.55-.41a50.71,50.71,0,0,1-14.79-19.76c-4.91-12.35-5.71-29.13,15.17-51.48,23.12-24.75,23.7-48.08,17.42-64a62.94,62.94,0,0,0-18.6-25.17A5.78,5.78,0,0,0,191,41.91Z"/></svg>