<svg id="Layer_1" data-name="Layer 1" xmlns="http://www.w3.org/2000/svg" viewBox="0 0 256 256"><defs><style>.cls-1{fill:#00aeef;}</style></defs><g id="Group_1672" data-name="Group 1672"><path id="Path_899" data-name="Path 899" class="cls-1" d="M127.94,39.08a5.94,5.94,0,0,0-5.46,3.74C111,71.65,96.82,87.12,84.82,101.37S62.62,129.51,62.62,152a65.38,65.38,0,0,0,130.76,0c0-22.5-10.2-36.38-22.2-50.64s-26.13-29.72-37.66-58.55A5.94,5.94,0,0,0,127.94,39.08ZM128,59A224.69,224.69,0,0,0,162.09,109c11.77,14,19.4,23.87,19.4,43a53.49,53.49,0,0,1-107,0c0-19.11,7.63-29,19.4-43A225.5,225.5,0,0,0,128,59Z"/><path id="Path_900" data-name="Path 900" class="cls-1" d="M93.15,127.71a7.39,7.39,0,0,0-7.29,7.49,57.11,57.11,0,0,0,57,57.25h.28a7.41,7.41,0,0,0,.22-14.81h-.22a41.86,41.86,0,0,1-42.47-41.25V135.2a7.38,7.38,0,0,0-7.28-7.49h-.21Z"/></g></svg>