<svg id="Layer_1" data-name="Layer 1" xmlns="http://www.w3.org/2000/svg" viewBox="0 0 256 256"><defs><style>.cls-1{fill:#39b54a;stroke:#39b54a;stroke-miterlimit:10;stroke-width:0.75px;}</style></defs><g id="Group_1673" data-name="Group 1673"><path id="Path_901" data-name="Path 901" class="cls-1" d="M127.94,37a6.05,6.05,0,0,0-5.57,3.81C110.6,70.26,96.19,86.05,83.94,100.59s-22.65,28.7-22.65,51.67a66.71,66.71,0,0,0,133.42,0c0-23-10.4-37.13-22.65-51.67s-26.67-30.33-38.43-59.75A6.06,6.06,0,0,0,127.94,37ZM128,57.31a229.65,229.65,0,0,0,34.79,51.1c12,14.26,19.8,24.35,19.8,43.85a54.58,54.58,0,0,1-109.15,0c0-19.5,7.79-29.6,19.8-43.85A229.87,229.87,0,0,0,128,57.31Z"/><path id="Path_902" data-name="Path 902" class="cls-1" d="M96.7,113.61a5.19,5.19,0,0,1,3.89,2l27.57,27.57,27.57-27.57a5.29,5.29,0,0,1,8.05,6.87,5.48,5.48,0,0,1-.59.59l-27.57,27.56,27.57,27.57a5.19,5.19,0,1,1-6.72,7.92h0a6.16,6.16,0,0,1-.75-.78l-27.57-27.57-27.56,27.57a5.19,5.19,0,0,1-8.85-5.42h0a5.24,5.24,0,0,1,1.72-1.72L121,150.58,93.46,123a5.2,5.2,0,0,1,1.94-9.09c.22,0,.43,0,.65,0S96.48,113.71,96.7,113.61Z"/></g></svg>